# xmcd
#
# Track frame offsets:
# 150
# 21874
# 39535
# 58169
# 77358
# 98326
# 118922
# 143122
# 163594
# 184193
# 204105
# 227667
# 250316
#
# Disc length: 3633 seconds
#
# Revision: 1
# Processed by: cddbd v1.5PL3 Copyright (c) Steve Scherf et al.
# Submitted via: CedeCatalogueitor 2.6.0.0 http://personales.ya.com/cdcatalogueitor
#
DISCID=a20e2f0d
DTITLE=Maná - Esenciales Sol
DYEAR=2003
DGENRE=Rock
TTITLE0=Te Llevaré Al Cielo
TTITLE1=Estoy Agotado
TTITLE2=Buscándola
TTITLE3=Perdido En Un Barco
TTITLE4=De Pies A Cabeza
TTITLE5=Oye Mi Amor
TTITLE6=Sábanas Frias
TTITLE7=Cómo Te Deseo
TTITLE8=Me Vale
TTITLE9=Déjame Entrar
TTITLE10=Tonto En La Lluvia
TTITLE11=Clavado En Un Bar
TTITLE12=Hechizera
EXTD=
EXTT0=
EXTT1=
EXTT2=
EXTT3=
EXTT4=
EXTT5=
EXTT6=
EXTT7=
EXTT8=
EXTT9=
EXTT10=
EXTT11=
EXTT12=
PLAYORDER=
